<svg width="35" height="35" viewBox="0 0 35 35" fill="none" xmlns="http://www.w3.org/2000/svg">
<path d="M8.75 7.94922C13.58 7.94922 17.5 11.8692 17.5 16.6992V17.4998H0.800625C0.360208 17.4998 0 17.1396 0 16.6992C0 11.8692 3.92 7.94922 8.75 7.94922Z" fill="#0073AB"/>
<path d="M27.0506 8.75C27.0506 13.58 23.1306 17.5 18.3006 17.5H17.5V0.800625C17.5 0.360208 17.8602 0 18.3006 0C23.1306 0 27.0506 3.92 27.0506 8.75Z" fill="#0073AB"/>
<path d="M26.25 27.0506C21.42 27.0506 17.5 23.1306 17.5 18.3006V17.5H34.1994C34.6398 17.5 35 17.8602 35 18.3006C35 23.1306 31.08 27.0506 26.25 27.0506Z" fill="#0073AB"/>
<path d="M7.95117 26.25C7.95117 21.42 11.8712 17.5 16.7012 17.5H17.5003V34.1994C17.5003 34.6398 17.1416 35 16.7012 35C11.8712 35 7.95117 31.08 7.95117 26.25Z" fill="#0073AB"/>
</svg>
