<svg width="35" height="35" viewBox="0 0 35 35" fill="none" xmlns="http://www.w3.org/2000/svg">
<path d="M29.1665 3.89062H5.83312C5.31742 3.89063 4.82284 4.09549 4.45819 4.46014C4.09353 4.82479 3.88867 5.31937 3.88867 5.83507V29.1684C3.88867 29.6841 4.09353 30.1787 4.45819 30.5433C4.82284 30.908 5.31742 31.1128 5.83312 31.1128H29.1665C29.6822 31.1128 30.1767 30.908 30.5414 30.5433C30.906 30.1787 31.1109 29.6841 31.1109 29.1684V5.83507C31.1109 5.31937 30.906 4.82479 30.5414 4.46014C30.1767 4.09549 29.6822 3.89063 29.1665 3.89062V3.89062ZM29.1665 29.1684H5.83312V5.83507H29.1665V29.1684Z" fill="#0073AB"/>
<rect x="5.83398" y="5.83203" width="23.3333" height="23.3333" fill="#0073AB"/>
<path d="M14.584 21.875V13.125L24.0632 17.5L14.584 21.875Z" fill="white"/>
<path d="M7.77734 6.80469H9.72179V9.72135H7.77734V6.80469Z" fill="white"/>
<path d="M13.6113 6.80469H15.5558V9.72135H13.6113V6.80469Z" fill="white"/>
<path d="M19.4453 6.80469H21.3898V9.72135H19.4453V6.80469Z" fill="white"/>
<path d="M25.2773 6.80469H27.2218V9.72135H25.2773V6.80469Z" fill="white"/>
<path d="M7.77734 25.2773H9.72179V28.194H7.77734V25.2773Z" fill="white"/>
<path d="M13.6113 25.2773H15.5558V28.194H13.6113V25.2773Z" fill="white"/>
<path d="M19.4453 25.2773H21.3898V28.194H19.4453V25.2773Z" fill="white"/>
<path d="M25.2773 25.2773H27.2218V28.194H25.2773V25.2773Z" fill="white"/>
<path d="M14.1949 22.4291C14.3723 22.5441 14.5757 22.6124 14.7865 22.6277C14.9972 22.6429 15.2085 22.6047 15.4005 22.5166L23.888 18.6277C24.1098 18.5277 24.2979 18.3657 24.4299 18.1614C24.5619 17.957 24.6322 17.7189 24.6322 17.4756C24.6322 17.2323 24.5619 16.9942 24.4299 16.7899C24.2979 16.5855 24.1098 16.4236 23.888 16.3235L15.4005 12.4346C15.2059 12.3457 14.9919 12.3077 14.7786 12.324C14.5652 12.3404 14.3595 12.4106 14.1808 12.5282C14.002 12.6457 13.856 12.8068 13.7565 12.9962C13.6569 13.1856 13.6071 13.3971 13.6116 13.611V21.3888C13.6148 21.597 13.6699 21.8011 13.7717 21.9827C13.8735 22.1643 14.019 22.3177 14.1949 22.4291V22.4291ZM15.1672 14.068L22.663 17.4999L15.1672 20.9124V14.068Z" fill="#0073AB"/>
</svg>
