<svg width="35" height="35" viewBox="0 0 35 35" fill="none" xmlns="http://www.w3.org/2000/svg">
<path d="M27.6358 16.742C27.6358 14.887 26.9693 13.6037 26.3977 12.6033L26.2227 12.3189C25.5285 11.2033 24.9233 10.2233 24.9233 9.08142C24.9233 7.70329 25.9689 6.41704 27.4433 6.41704C27.487 6.41704 27.5279 6.42142 27.5702 6.42287L27.6373 6.42871C24.8723 3.89121 21.2541 2.48392 17.5004 2.48829C15.0125 2.48683 12.5639 3.10517 10.3735 4.28642C8.18455 5.46767 6.32371 7.17537 4.95725 9.25496C5.30725 9.26663 5.64267 9.27537 5.92413 9.27537C7.49184 9.27537 9.92288 9.08579 9.92288 9.08579C10.7337 9.03475 10.83 10.2233 10.0191 10.3195C10.0191 10.3195 9.2083 10.4158 8.30121 10.461L13.7685 26.7214L17.0483 16.8645L14.7077 10.4581C13.9041 10.41 13.1385 10.3166 13.1385 10.3166C12.3277 10.2685 12.4254 9.03037 13.2318 9.0785C13.2318 9.0785 15.7125 9.26808 17.1868 9.26808C18.7575 9.26808 21.1885 9.0785 21.1885 9.0785C21.9979 9.03037 22.0912 10.2204 21.2833 10.3166C21.2833 10.3166 20.4695 10.4114 19.5654 10.4581L24.9904 26.5945L26.4866 21.5925L26.6048 21.2133C27.1954 19.332 27.63 17.9423 27.63 16.7377L27.6358 16.742ZM2.4883 17.5004C2.4883 20.3208 3.28017 23.0814 4.77788 25.4702C6.27413 27.8589 8.41205 29.7795 10.9481 31.0089L3.78621 11.3885C2.92725 13.312 2.48538 15.3945 2.4883 17.5004Z" fill="#0073AB"/>
<path d="M13.2598 31.8967L17.766 18.8096L22.3802 31.4534C22.4093 31.5263 22.4458 31.5934 22.4866 31.659C19.5116 32.7076 16.2829 32.7907 13.2598 31.8967ZM30.6708 10.2944C30.7364 10.7742 30.7729 11.2846 30.7729 11.8388C30.7729 13.3613 30.4885 15.0734 29.631 17.2157L25.0475 30.4719C28.4308 28.5061 30.9114 25.2963 31.9643 21.5265C33.0143 17.7567 32.5521 13.7259 30.6752 10.293L30.6708 10.2944Z" fill="#0073AB"/>
<path fill-rule="evenodd" clip-rule="evenodd" d="M0 17.5C0 7.85021 7.85021 0 17.5 0C27.1469 0 35 7.85021 35 17.5C35 27.1483 27.1469 35 17.5 35C7.85021 35 0 27.1483 0 17.5ZM0.803542 17.5C0.803542 26.7079 8.29354 34.1965 17.5 34.1965C26.705 34.1965 34.195 26.7065 34.195 17.5C34.195 8.29063 26.705 0.803542 17.5 0.803542C8.29063 0.803542 0.803542 8.29063 0.803542 17.5Z" fill="#0073AB"/>
</svg>
